<svg width="12" height="11" viewBox="0 0 12 11" fill="none" xmlns="http://www.w3.org/2000/svg">
<path d="M1.12125 1.16667V9.33333H10.0912V2.33333H5.37079L4.24954 1.16667H1.12125ZM5.84171 1.16667H10.6519C10.8089 1.16667 10.9415 1.22306 11.0499 1.33583C11.1583 1.44861 11.2125 1.58667 11.2125 1.75V9.91667C11.2125 10.08 11.1583 10.2181 11.0499 10.3308C10.9415 10.4436 10.8089 10.5 10.6519 10.5H0.560625C0.40365 10.5 0.270969 10.4436 0.162581 10.3308C0.0541937 10.2181 0 10.08 0 9.91667V0.583333C0 0.42 0.0541937 0.281944 0.162581 0.169167C0.270969 0.0563889 0.40365 0 0.560625 0H4.72046L5.84171 1.16667Z" fill="#478AFF"/>
</svg>
